<svg id="Capa_1" enable-background="new 0 0 512 512" height="512" viewBox="0 0 512 512" width="512" xmlns="http://www.w3.org/2000/svg"><g><circle cx="256" cy="256" fill="#f9ef63" r="148.002"/><path d="m297.613 398.072c-13.197 3.863-27.166 5.934-41.619 5.934-81.735 0-147.996-66.272-147.996-148.006 0-81.735 66.261-148.006 147.996-148.006 14.453 0 28.423 2.071 41.619 5.934-61.481 17.976-106.387 74.78-106.387 142.072s44.906 124.096 106.387 142.072z" fill="#f1d333"/><g fill="#f9ef63"><path d="m257.447 70.162h-2.894c-10.208 0-18.673-7.904-19.372-18.089l-2.149-31.327c-.77-11.22 8.125-20.746 19.372-20.746h7.192c11.247 0 20.142 9.526 19.372 20.746l-2.149 31.327c-.698 10.184-9.163 18.089-19.372 18.089z"/><path d="m254.553 441.838h2.894c10.208 0 18.673 7.904 19.372 18.089l2.149 31.327c.77 11.221-8.125 20.746-19.372 20.746h-7.192c-11.247 0-20.142-9.526-19.372-20.746l2.149-31.327c.698-10.184 9.163-18.089 19.372-18.089z"/><path d="m164.334 94.336-2.507 1.447c-8.841 5.104-20.124 2.491-25.821-5.979l-17.524-26.055c-6.277-9.333-3.337-22.029 6.403-27.653l6.229-3.596c9.74-5.624 22.206-1.821 27.15 8.281l13.802 28.204c4.488 9.169 1.109 20.247-7.732 25.351z"/><path d="m347.666 417.664 2.507-1.447c8.841-5.104 20.124-2.491 25.821 5.979l17.524 26.055c6.277 9.333 3.337 22.029-6.403 27.653l-6.229 3.596c-9.74 5.624-22.206 1.821-27.15-8.281l-13.802-28.204c-4.488-9.169-1.109-20.247 7.732-25.351z"/><path d="m95.783 161.828-1.447 2.507c-5.104 8.841-16.182 12.219-25.351 7.732l-28.205-13.803c-10.102-4.944-13.904-17.41-8.281-27.15l3.596-6.229c5.624-9.74 18.32-12.68 27.653-6.403l26.055 17.524c8.471 5.698 11.084 16.981 5.98 25.822z"/><path d="m416.217 350.172 1.447-2.507c5.104-8.841 16.182-12.219 25.351-7.732l28.204 13.802c10.102 4.944 13.904 17.41 8.281 27.15l-3.596 6.229c-5.624 9.74-18.32 12.68-27.653 6.403l-26.055-17.524c-8.47-5.697-11.083-16.98-5.979-25.821z"/><path d="m70.162 254.553v2.894c0 10.208-7.904 18.673-18.089 19.372l-31.327 2.149c-11.22.77-20.746-8.125-20.746-19.372v-7.192c0-11.247 9.526-20.142 20.746-19.372l31.327 2.149c10.184.698 18.089 9.163 18.089 19.372z"/><path d="m441.838 257.447v-2.894c0-10.208 7.904-18.673 18.089-19.372l31.327-2.149c11.221-.77 20.746 8.125 20.746 19.372v7.192c0 11.247-9.526 20.142-20.746 19.372l-31.327-2.149c-10.184-.698-18.089-9.163-18.089-19.372z"/><path d="m94.336 347.666 1.447 2.507c5.104 8.841 2.491 20.124-5.979 25.821l-26.055 17.524c-9.333 6.277-22.029 3.337-27.653-6.403l-3.596-6.229c-5.624-9.74-1.821-22.206 8.281-27.15l28.204-13.802c9.169-4.488 20.247-1.109 25.351 7.732z"/><path d="m417.664 164.334-1.447-2.507c-5.104-8.841-2.491-20.124 5.979-25.821l26.055-17.524c9.333-6.277 22.029-3.337 27.653 6.403l3.596 6.229c5.624 9.74 1.821 22.206-8.281 27.15l-28.204 13.802c-9.169 4.488-20.247 1.109-25.351-7.732z"/><path d="m161.828 416.217 2.507 1.447c8.841 5.104 12.219 16.182 7.732 25.351l-13.802 28.204c-4.944 10.102-17.41 13.904-27.15 8.281l-6.229-3.596c-9.74-5.624-12.68-18.32-6.403-27.653l17.524-26.055c5.697-8.47 16.98-11.083 25.821-5.979z"/><path d="m350.172 95.783-2.507-1.447c-8.841-5.104-12.219-16.182-7.732-25.351l13.802-28.204c4.944-10.102 17.41-13.904 27.15-8.281l6.229 3.596c9.74 5.624 12.68 18.32 6.403 27.653l-17.524 26.055c-5.697 8.47-16.98 11.083-25.821 5.979z"/></g></g></svg>